<svg width="70" height="70" viewBox="0 0 70 70" fill="none" xmlns="http://www.w3.org/2000/svg">
<g id="Group 212">
<path id="Rectangle 57" d="M0 10C0 4.47715 4.47715 0 10 0H60C65.5229 0 70 4.47715 70 10V60C70 65.5229 65.5229 70 60 70H10C4.47715 70 0 65.5229 0 60V10Z" fill="white"/>
<g id="Group">
<path id="Vector" fill-rule="evenodd" clip-rule="evenodd" d="M52.2096 20.5242C52.2096 22.0369 52.1158 23.6646 51.9388 25.2367C51.3797 30.2052 46.9251 38.063 42.764 40.8349C40.073 42.6276 36.8445 43.4337 33.6267 43.1162C30.4089 42.7988 27.4001 41.3774 25.1112 39.0935C23.6312 37.6167 22.5111 35.838 21.8167 33.8955C21.062 31.7846 20.4093 29.6148 19.6131 27.5191C18.0523 23.4105 17.4665 17.7288 22.7002 12.9272C23.2171 12.4529 23.7012 11.937 23.8561 11.2527C24.3356 9.14748 25.3979 4.46798 32.0986 5.36223C37.2664 6.04998 52.2096 8.71698 52.2096 20.5242ZM41.1987 23.4335C43.3914 24.0383 44.9128 26.2213 45.3188 28.4593C45.3785 28.7884 45.5035 29.4057 45.4863 29.7397C45.3541 32.3048 44.2852 34.7393 42.4726 36.5754C40.5417 38.5315 37.9208 39.6524 35.1726 39.6975C32.4244 39.7426 29.7681 38.7084 27.774 36.8168C26.3583 35.4739 25.3565 33.7748 24.8587 31.9193C24.4515 30.4015 24.7051 28.7982 24.7444 27.2272C24.7603 26.5934 24.7598 25.8999 24.7591 25.1775C24.759 24.983 24.7589 24.7864 24.7591 24.5884C24.764 19.7333 29.1615 18.5493 33.5627 20.599C36.5452 21.988 39.1709 22.8742 41.1987 23.4335Z" fill="black"/>
<path id="Vector_2" d="M15.75 59.3567C15.75 57.7053 16.5127 56.2323 17.7061 55.2697C18.0184 55.0177 18.1861 54.6151 18.0967 54.2239C17.8322 53.0282 17.6249 51.8205 17.4755 50.6049C17.2578 48.9055 15.5184 47.7587 13.9881 48.5292C8.07368 51.5072 3.5 55.8395 3.5 60.3542C3.5 65.6023 7.75441 69.8567 13.0025 69.8567H56.9975C62.2456 69.8567 66.5 65.6023 66.5 60.3542C66.5 55.2832 60.7325 50.4439 53.7737 47.4933C53.7523 47.4842 53.7285 47.4999 53.7285 47.5232C53.76 48.5907 53.7005 49.8157 53.585 50.9934C53.519 51.6799 53.4329 52.365 53.3316 53.0109C53.2424 53.5796 53.6744 54.1067 54.25 54.1067C54.5749 54.1069 54.8933 54.1975 55.1697 54.3684C55.446 54.5393 55.6693 54.7838 55.8145 55.0744L57.5645 58.5744C57.687 58.8177 57.75 59.0854 57.75 59.3567V62.8567C57.75 63.3208 57.5656 63.7659 57.2374 64.0941C56.9092 64.4223 56.4641 64.6067 56 64.6067H54.25C53.2835 64.6067 52.5 63.8232 52.5 62.8567V61.9817C52.5 61.4984 52.8918 61.1067 53.375 61.1067C53.8582 61.1067 54.25 60.7149 54.25 60.2317V60.025C54.25 59.8571 54.2109 59.6915 54.1358 59.5413L53.9511 59.1718C53.4715 58.2126 52.4911 57.6067 51.4186 57.6067H50.0814C49.0089 57.6067 48.0285 58.2126 47.5489 59.1718L47.3642 59.5413C47.2891 59.6915 47.25 59.8571 47.25 60.025V60.2317C47.25 60.7149 47.6418 61.1067 48.125 61.1067C48.6082 61.1067 49 61.4984 49 61.9817V62.8567C49 63.8232 48.2165 64.6067 47.25 64.6067H45.5C45.0359 64.6067 44.5908 64.4223 44.2626 64.0941C43.9344 63.7659 43.75 63.3208 43.75 62.8567V59.3567C43.75 59.0854 43.813 58.8177 43.9355 58.5744L45.6855 55.0744C45.8307 54.7838 46.054 54.5393 46.3303 54.3684C46.6066 54.1975 46.9251 54.1069 47.25 54.1067H49.0376C49.3398 54.1067 49.6046 53.902 49.6668 53.6062C49.8418 52.7819 49.9975 51.7372 50.1025 50.6574C50.2075 49.5759 50.2565 48.5032 50.2302 47.6212C50.2245 47.2557 50.1959 46.891 50.1445 46.5292C50.106 46.2807 50.0675 46.1669 50.0605 46.1424C50.0584 46.1372 50.0582 46.1357 50.0599 46.138C50.0603 46.1386 50.0609 46.1388 50.0615 46.1386C50.0629 46.1381 50.0628 46.1363 50.0615 46.1359C49.1342 45.8484 48.1964 45.596 47.25 45.3794C45.4612 44.9705 43.9129 47.1469 42.0779 47.1469H24.8303C24.6275 47.1469 24.4419 47.0334 24.3495 46.8529C23.9785 46.1144 23.5217 45.2027 22.75 45.3794C22.3727 45.4649 21.9957 45.5568 21.6188 45.6551C21.0827 45.7949 20.6967 46.2674 20.7008 46.8214C20.7078 47.7892 20.8005 48.9739 20.9492 50.1709C21.098 51.3644 21.2993 52.5264 21.5093 53.4434C21.6078 53.8734 21.9723 54.1776 22.3976 54.2951C23.1297 54.4973 23.8121 54.8567 24.3957 55.3517C25.1653 56.0044 25.7305 56.8651 26.0236 57.8307C26.3168 58.7963 26.3254 59.8259 26.0485 60.7963C25.7716 61.7666 25.2209 62.6366 24.4623 63.3021C23.7038 63.9676 22.7695 64.4004 21.7714 64.5487C20.7732 64.6969 19.7535 64.5544 18.8342 64.1381C17.915 63.7218 17.1352 63.0494 16.5882 62.2014C16.0412 61.3535 15.7502 60.3658 15.75 59.3567Z" fill="black"/>
<path id="Vector_3" d="M22.75 59.3567C22.75 60.3612 21.9415 61.1329 21 61.1329C20.0585 61.1329 19.25 60.3629 19.25 59.3567C19.25 58.3522 20.0585 57.5804 21 57.5804C21.9415 57.5804 22.75 58.3504 22.75 59.3567Z" fill="black"/>
</g>
</g>
</svg>
