<svg width="36" height="37" viewBox="0 0 36 37" fill="none" xmlns="http://www.w3.org/2000/svg">
<g id="Group">
<path id="Vector" fill-rule="evenodd" clip-rule="evenodd" d="M27.834 8.72813C27.834 9.59254 27.7803 10.5226 27.6792 11.421C27.3597 14.2601 24.8142 18.7503 22.4365 20.3342C20.8988 21.3586 19.0539 21.8192 17.2152 21.6378C15.3764 21.4565 13.6571 20.6443 12.3492 19.3391C11.8522 18.8433 11.4263 18.2879 11.0791 17.689C9.95455 15.7496 9.27484 13.5193 8.78551 11.3315C8.30598 9.18757 8.53679 6.62062 10.9714 4.38697C11.2668 4.11595 11.5435 3.82112 11.632 3.43013C11.906 2.22713 12.513 -0.446868 16.342 0.0641322C19.295 0.457132 27.834 1.98113 27.834 8.72813ZM21.542 10.3906C22.795 10.7362 23.6643 11.9836 23.8964 13.2624C23.9305 13.4505 24.0019 13.8033 23.9921 13.9941C23.9165 15.4599 23.3057 16.851 22.27 17.9002C21.1666 19.018 19.6689 19.6585 18.0985 19.6843C16.5282 19.7101 15.0103 19.1191 13.8708 18.0382C13.3118 17.508 12.8658 16.8806 12.5497 16.1938C11.8926 14.7663 12.1489 13.1142 12.1481 11.5427C12.1481 11.4911 12.148 11.4393 12.148 11.3871C12.1479 11.276 12.1479 11.1637 12.148 11.0505C12.1508 8.27617 14.6636 7.59959 17.1786 8.77086C18.8829 9.56456 20.3833 10.071 21.542 10.3906Z" fill="black"/>
<path id="Vector_2" d="M7 30.9181C7 29.9745 7.43582 29.1328 8.11776 28.5827C8.29623 28.4387 8.39205 28.2087 8.341 27.9851C8.18984 27.3018 8.07137 26.6117 7.986 25.9171C7.86157 24.946 6.86766 24.2907 5.99321 24.731C2.61353 26.4327 0 28.9083 0 31.4881C0 34.487 2.43109 36.9181 5.43 36.9181H30.57C33.5689 36.9181 36 34.487 36 31.4881C36 28.5904 32.7043 25.8251 28.7278 24.139C28.7156 24.1339 28.702 24.1428 28.702 24.1561C28.72 24.7661 28.686 25.4661 28.62 26.1391C28.5823 26.5314 28.5331 26.9229 28.4752 27.292C28.4242 27.6169 28.6711 27.9181 29 27.9181C29.1857 27.9182 29.3676 27.97 29.5255 28.0677C29.6834 28.1653 29.811 28.305 29.894 28.4711L30.894 30.4711C30.964 30.6101 31 30.7631 31 30.9181V32.9181C31 33.1833 30.8946 33.4377 30.7071 33.6252C30.5196 33.8128 30.2652 33.9181 30 33.9181H29C28.4477 33.9181 28 33.4704 28 32.9181V32.4181C28 32.142 28.2239 31.9181 28.5 31.9181C28.7761 31.9181 29 31.6943 29 31.4181V31.3C29 31.2041 28.9777 31.1094 28.9347 31.0236L28.8292 30.8125C28.5551 30.2644 27.9949 29.9181 27.3821 29.9181H26.6179C26.0051 29.9181 25.4449 30.2644 25.1708 30.8125L25.0653 31.0236C25.0223 31.1094 25 31.2041 25 31.3V31.4181C25 31.6943 25.2239 31.9181 25.5 31.9181C25.7761 31.9181 26 32.142 26 32.4181V32.9181C26 33.4704 25.5523 33.9181 25 33.9181H24C23.7348 33.9181 23.4804 33.8128 23.2929 33.6252C23.1054 33.4377 23 33.1833 23 32.9181V30.9181C23 30.7631 23.036 30.6101 23.106 30.4711L24.106 28.4711C24.189 28.305 24.3166 28.1653 24.4745 28.0677C24.6324 27.97 24.8143 27.9182 25 27.9181H26.0215C26.1942 27.9181 26.3455 27.8011 26.381 27.6321C26.481 27.1611 26.57 26.5641 26.63 25.9471C26.69 25.3291 26.718 24.7161 26.703 24.2121C26.6997 24.0033 26.6833 23.7949 26.654 23.5881C26.632 23.4461 26.61 23.3811 26.606 23.3671C26.6048 23.3641 26.6047 23.3633 26.6056 23.3646C26.6059 23.3649 26.6062 23.365 26.6066 23.3649C26.6073 23.3647 26.6073 23.3636 26.6066 23.3634C26.0767 23.1991 25.5408 23.0549 25 22.9311C23.9778 22.6974 23.0931 23.9411 22.0445 23.9411H12.1887C12.0729 23.9411 11.9668 23.8762 11.914 23.7731C11.702 23.3511 11.441 22.8301 11 22.9311C10.7844 22.98 10.5689 23.0325 10.3536 23.0886C10.0473 23.1685 9.82668 23.4385 9.829 23.7551C9.833 24.3081 9.886 24.9851 9.971 25.6691C10.056 26.3511 10.171 27.0151 10.291 27.5391C10.3473 27.7848 10.5556 27.9587 10.7986 28.0258C11.2169 28.1413 11.6069 28.3467 11.9404 28.6296C12.3802 29.0025 12.7032 29.4943 12.8707 30.0461C13.0381 30.5979 13.0431 31.1862 12.8848 31.7407C12.7266 32.2952 12.4119 32.7924 11.9785 33.1727C11.545 33.5529 11.0111 33.8002 10.4408 33.885C9.8704 33.9697 9.28769 33.8882 8.76241 33.6504C8.23713 33.4125 7.79154 33.0283 7.47897 32.5437C7.16641 32.0591 7.00011 31.4947 7 30.9181Z" fill="black"/>
<path id="Vector_3" d="M11 30.9181C11 31.4921 10.538 31.9331 10 31.9331C9.462 31.9331 9 31.4931 9 30.9181C9 30.3441 9.462 29.9031 10 29.9031C10.538 29.9031 11 30.3431 11 30.9181Z" fill="black"/>
</g>
</svg>
