<svg width="15" height="15" viewBox="0 0 15 15" fill="none" xmlns="http://www.w3.org/2000/svg">
<g id="mynaui:clock-square">
<g id="Group">
<path id="Vector" d="M7.5 4.75V8.5L10 9.75" stroke="white" stroke-width="1.5" stroke-linecap="round" stroke-linejoin="round"/>
<path id="Vector_2" d="M1.875 6.875C1.875 5.475 1.875 4.775 2.1475 4.24C2.38718 3.76962 2.76962 3.38718 3.24 3.1475C3.775 2.875 4.475 2.875 5.875 2.875H9.125C10.525 2.875 11.225 2.875 11.76 3.1475C12.2304 3.38718 12.6128 3.76962 12.8525 4.24C13.125 4.775 13.125 5.475 13.125 6.875V10.125C13.125 11.525 13.125 12.225 12.8525 12.76C12.6128 13.2304 12.2304 13.6128 11.76 13.8525C11.225 14.125 10.525 14.125 9.125 14.125H5.875C4.475 14.125 3.775 14.125 3.24 13.8525C2.76962 13.6128 2.38718 13.2304 2.1475 12.76C1.875 12.225 1.875 11.525 1.875 10.125V6.875Z" stroke="white" stroke-width="1.5" stroke-linecap="round" stroke-linejoin="round"/>
</g>
</g>
</svg>
