<svg width="16" height="14" viewBox="0 0 16 14" fill="none" xmlns="http://www.w3.org/2000/svg">
<g id="android-call">
<path id="Shape" fill-rule="evenodd" clip-rule="evenodd" d="M14.2396 9.47626C13.1926 9.47626 12.1873 9.33263 11.2662 9.08183C10.973 9.01 10.638 9.04574 10.4287 9.26117L8.58566 10.8393C6.19834 9.79923 4.27198 8.149 3.05724 6.10426L4.90024 4.52615C5.10959 4.34681 5.19322 4.05992 5.10959 3.80875C4.7744 2.9838 4.60694 2.12273 4.60694 1.22595C4.60694 0.831517 4.23004 0.508545 3.76932 0.508545H0.837614C0.376893 0.508545 0 0.831517 0 1.22595C0 7.96959 6.36607 13.422 14.2396 13.422C14.7002 13.422 15.0773 13.0991 15.0773 12.7046V10.1937C15.0773 9.79923 14.7002 9.47626 14.2396 9.47626Z" fill="black"/>
</g>
</svg>
